<?xml version="1.0" encoding="UTF-8"?>
<svg id="a" data-name="Layer 1" xmlns="http://www.w3.org/2000/svg" viewBox="0 0 256 256">
  <defs>
    <style>
      .b {
        fill: #000;
        stroke-width: 0px;
      }
    </style>
  </defs>
  <path d="M128,208.37c-6.4,0-12.79-1.27-18.75-3.82-13.98-5.97-26.75-15.3-37.95-27.71-3.3-3.66-3.02-9.31.65-12.61,3.66-3.3,9.31-3.02,12.61.65,9.46,10.48,20.12,18.3,31.71,23.25,7.46,3.19,16.01,3.19,23.47,0,17.73-7.58,33.87-22.49,45.45-41.98,11.12-18.71,17.24-39.9,17.24-59.65,0-37.85-33.38-68.64-74.42-68.64S53.58,48.65,53.58,86.5c0,14.5,3.35,29.99,9.7,44.81,1.94,4.53-.16,9.78-4.69,11.72-4.53,1.94-9.78-.16-11.72-4.69-7.29-17.02-11.14-34.94-11.14-51.84,0-23.23,9.68-45.03,27.26-61.39C80.38,8.92,103.47,0,128,0s47.62,8.92,65.02,25.11c17.58,16.36,27.26,38.16,27.26,61.39s-7.01,47.34-19.74,68.77c-6.52,10.97-14.27,20.7-23.04,28.92-9.4,8.81-19.74,15.66-30.75,20.36-5.96,2.55-12.36,3.82-18.75,3.82Z"/>
  <path d="M128,125.02c-18.06,0-32.74-14.69-32.74-32.74s14.69-32.74,32.74-32.74,32.74,14.69,32.74,32.74-14.69,32.74-32.74,32.74ZM128,77.4c-8.21,0-14.88,6.68-14.88,14.88s6.68,14.88,14.88,14.88,14.88-6.68,14.88-14.88-6.68-14.88-14.88-14.88Z"/>
  <path d="M128,256c-33.04,0-64.24-5.85-87.86-16.48C14.26,227.87,0,211.52,0,193.49c0-10.84,5.3-21.36,15.31-30.43,3.66-3.31,9.3-3.03,12.61.63,3.31,3.66,3.03,9.3-.63,12.61-6.26,5.67-9.44,11.46-9.44,17.19,0,21.12,45.23,44.65,110.14,44.65,18.31,0,36.49-1.98,52.58-5.72,4.8-1.12,9.6,1.87,10.72,6.68,1.12,4.8-1.87,9.6-6.68,10.72-17.65,4.1-36.7,6.19-56.63,6.19ZM227.03,232.19c-2.87,0-5.7-1.38-7.42-3.95-2.75-4.09-1.66-9.64,2.43-12.39,7.35-4.94,16.1-12.83,16.1-22.36,0-5.74-3.18-11.52-9.44-17.19-3.66-3.31-3.94-8.96-.63-12.61,3.31-3.66,8.96-3.94,12.61-.63,10.02,9.07,15.31,19.59,15.31,30.43,0,9.6-4.16,23.84-24,37.18-1.53,1.03-3.26,1.52-4.97,1.52Z"/>
</svg>