<?xml version="1.0" encoding="UTF-8"?>
<svg id="a" data-name="Layer 1" xmlns="http://www.w3.org/2000/svg" viewBox="0 0 256 256">
  <defs>
    <style>
      .b {
        fill: #000;
        stroke-width: 0px;
      }
    </style>
  </defs>
  <path d="M151.81,232.19h-47.63c-23.16,0-39.89,0-53.45-1.82-15.52-2.09-26.06-6.63-34.17-14.74-8.11-8.11-12.66-18.65-14.74-34.17-1.82-13.56-1.82-30.29-1.82-53.45s0-39.89,1.82-53.45c2.09-15.52,6.63-26.06,14.74-34.17,8.11-8.11,18.65-12.65,34.17-14.74,13.56-1.82,30.29-1.82,53.45-1.82h47.63c23.16,0,39.89,0,53.45,1.82,15.52,2.09,26.06,6.63,34.17,14.74,8.91,8.91,13.49,20.61,15.31,39.12.48,4.91-3.1,9.28-8.01,9.76-4.91.48-9.28-3.1-9.76-8.01-1.4-14.23-4.35-22.42-10.17-28.24-11.33-11.33-32.61-11.33-74.99-11.33h-47.63c-42.38,0-63.66,0-74.99,11.33-11.33,11.33-11.33,32.61-11.33,74.99s0,63.66,11.33,74.99c11.33,11.33,32.61,11.33,74.99,11.33h47.63c42.38,0,63.66,0,74.99-11.33,11.34-11.33,11.34-32.61,11.34-74.99,0-4.93,4-8.93,8.93-8.93s8.93,4,8.93,8.93c0,23.16,0,39.89-1.82,53.45-2.09,15.52-6.63,26.06-14.74,34.17-8.11,8.11-18.65,12.65-34.17,14.74-13.56,1.82-30.29,1.82-53.45,1.82Z"/>
  <path d="M128,161.31c-9.3,0-17.71-3.32-29.02-11.45-4.01-2.88-4.92-8.46-2.04-12.46,2.88-4,8.46-4.92,12.46-2.04,8.11,5.82,13.32,8.09,18.6,8.09,9.7,0,19.83-8.44,40.02-25.27l25.71-21.42c3.79-3.16,9.42-2.65,12.58,1.14,3.16,3.79,2.65,9.42-1.14,12.58l-25.71,21.42c-22.75,18.96-35.29,29.41-51.45,29.41ZM77.99,130.41c-2.02,0-4.04-.68-5.71-2.07l-21.43-17.86c-3.79-3.16-4.3-8.79-1.14-12.58,3.16-3.79,8.79-4.3,12.58-1.14l21.43,17.86c3.79,3.16,4.3,8.79,1.14,12.58-1.77,2.12-4.31,3.21-6.86,3.21Z"/>
</svg>