<?xml version="1.0" encoding="UTF-8"?>
<svg id="a" data-name="Layer 1" xmlns="http://www.w3.org/2000/svg" viewBox="0 0 256 256">
  <defs>
    <style>
      .b {
        fill: #000;
        stroke-width: 0px;
      }
    </style>
  </defs>
  <path d="M230.09,169.39l-12.49-12.49c-1.62-1.62-4.24-1.62-5.85,0l-30.15,30.15c-1.62,1.62-1.62,4.24,0,5.85l4.61,4.61-7.73,7.73c-1.71,1.71-3.98,2.66-6.4,2.67l-18.47-.36v-15.6l64.27-64.27c1.62-1.62,1.62-4.24,0-5.85l-12.49-12.49c-1.62-1.62-4.24-1.62-5.85,0l-60.94,60.94c-2.14-.7-4.42-1.09-6.79-1.09-5.54,0-10.61,2.08-14.46,5.5-19.04-6.23-32.19-24.19-32.19-44.28,0-5.56.99-11,2.93-16.19,3.56-.67,6.87-2.06,9.77-4.02l13.04,12.89s.05.04.07.06c.06.06.13.12.19.17.04.03.08.07.13.1.06.05.13.09.19.14.05.04.11.07.16.1.06.04.12.07.17.1.07.04.14.07.2.1.05.02.1.05.16.07.08.03.16.06.24.09.03.01.06.03.1.04l19,6.25,8.67,8.67c1.67,1.67,3.86,2.5,6.05,2.5s4.38-.83,6.05-2.5l11.42-11.42c3.34-3.34,3.34-8.76,0-12.1l-8.65-8.65-6.04-19.19c-.02-.05-.04-.1-.06-.15-.03-.07-.05-.14-.08-.21-.03-.08-.07-.15-.1-.22-.02-.05-.04-.1-.07-.14-.05-.09-.1-.17-.15-.25-.02-.03-.04-.07-.06-.1-.06-.09-.12-.17-.19-.25-.02-.02-.04-.05-.06-.07-.07-.08-.14-.16-.21-.24-.02-.02-.03-.04-.05-.06l-.02-.02s-.02-.02-.02-.02l-51.24-50.99c-2.45-2.45-5.71-3.8-9.17-3.8s-6.56,1.29-8.98,3.62l-17.11-17.11c.61-1.51.93-3.13.93-4.81,0-3.43-1.33-6.65-3.76-9.07-2.42-2.42-5.64-3.76-9.07-3.76s-6.65,1.33-9.07,3.76l-12.01,12.01c-2.42,2.42-3.76,5.65-3.76,9.07s1.34,6.65,3.76,9.07c2.5,2.5,5.79,3.75,9.07,3.75,1.63,0,3.27-.31,4.81-.93l17.11,17.11c-4.87,5.07-4.82,13.16.17,18.15l1.45,1.45c.13.13.27.25.42.36-2.83,4.19-4.49,9.23-4.49,14.66,0,2.62.39,5.15,1.11,7.54-5.13,10.91-7.73,22.48-7.73,34.41,0,18.54,6.11,36.01,17.66,50.53,10.7,13.44,25.53,23.26,41.96,27.84v21.26h-17.93c-9.59,0-17.39,7.8-17.39,17.39v4.42c0,2.29,1.85,4.14,4.14,4.14h105.97c2.29,0,4.14-1.85,4.14-4.14v-4.42c0-9.59-7.8-17.39-17.39-17.39h-17.93v-14.21l18.35.36s.05,0,.08,0c4.64,0,9.01-1.81,12.29-5.09l7.73-7.73,2.02,2.02c.81.81,1.87,1.21,2.93,1.21s2.12-.4,2.93-1.21l30.15-30.15c1.62-1.62,1.62-4.24,0-5.85ZM202.46,118.14l6.63,6.63-57.37,57.37c-1.31-2.94-3.25-5.53-5.66-7.61l56.4-56.4ZM65.28,88.47c0-9.89,8.05-17.94,17.94-17.94s17.94,8.05,17.94,17.94-8.05,17.94-17.94,17.94-17.94-8.05-17.94-17.94ZM143.17,96.65l3.54,11.25-14.09,14.09-11.13-3.66,21.68-21.68ZM157.85,121.74l-11.42,11.42c-.11.11-.28.11-.39,0l-6.44-6.44,11.81-11.81,6.44,6.44c.11.11.11.28,0,.39ZM87.53,39.41c1.25,0,2.43.49,3.32,1.38l48.35,48.12-25.42,25.42-9.88-9.76c3.46-4.44,5.54-10.03,5.54-16.08,0-14.46-11.76-26.22-26.22-26.22-6.07,0-11.66,2.08-16.11,5.56-.06-.07-.12-.14-.19-.21l-1.45-1.45c-1.83-1.83-1.83-4.81,0-6.64l18.73-18.74c.89-.89,2.07-1.37,3.32-1.37ZM56.3,24.21l16.38,16.38-7.39,7.39-16.38-16.38,7.39-7.39ZM34.31,28.06c-.86-.86-1.33-2-1.33-3.22s.47-2.36,1.33-3.22l12.01-12.01c.86-.86,2-1.33,3.22-1.33s2.36.47,3.22,1.33c.86.86,1.33,2,1.33,3.22s-.47,2.36-1.33,3.22l-12.01,12.01c-1.77,1.77-4.66,1.77-6.43,0ZM74.51,175.79c-10.37-13.03-15.86-28.72-15.86-45.37,0-8.61,1.52-17.02,4.51-25.08,4.01,4.76,9.68,8.08,16.11,9.05-1.59,5.19-2.41,10.56-2.41,16.03,0,22.72,14.28,43.13,35.25,51.21-1.36,2.84-2.12,6.02-2.12,9.38v9.14c-13.88-4.36-26.36-12.88-35.48-24.35ZM180.64,247.44v.28h-97.69v-.28c0-5.02,4.09-9.11,9.11-9.11h79.47c5.02,0,9.11,4.09,9.11,9.11ZM118.28,230.06v-39.05c0-7.46,6.07-13.52,13.52-13.52s13.52,6.07,13.52,13.52v39.05h-27.05ZM197.01,196.62l-6.63-6.63,24.3-24.3,6.63,6.63-24.3,24.3Z"/>
  <path d="M83.23,92.61c2.29,0,4.14-1.85,4.14-4.14s-1.85-4.14-4.14-4.14h0c-2.29,0-4.14,1.85-4.14,4.14s1.86,4.14,4.14,4.14Z"/>
  <path d="M131.8,190.31c-1.09,0-2.15.44-2.93,1.21-.77.77-1.21,1.84-1.21,2.93s.45,2.16,1.21,2.93c.77.77,1.84,1.21,2.93,1.21s2.16-.44,2.93-1.21c.77-.77,1.21-1.84,1.21-2.93s-.44-2.16-1.21-2.93c-.77-.77-1.84-1.21-2.93-1.21Z"/>
</svg>