<?xml version="1.0" encoding="UTF-8"?>
<svg id="a" data-name="Layer 1" xmlns="http://www.w3.org/2000/svg" viewBox="0 0 256 256">
  <defs>
    <style>
      .b {
        fill: #000;
        stroke-width: 0px;
      }
    </style>
  </defs>
  <path class="b" d="M42.49,103.97l47.63,11.91c.73.18,1.46.27,2.17.27,4,0,7.64-2.71,8.66-6.77,1.2-4.78-1.71-9.63-6.5-10.83l-47.63-11.91c-4.78-1.2-9.63,1.71-10.83,6.5-1.2,4.78,1.71,9.63,6.5,10.83Z"/>
  <path class="b" d="M220.01,93.15c-1.2-4.78-6.04-7.69-10.83-6.5l-47.63,11.91c-4.78,1.2-7.69,6.04-6.5,10.83,1.01,4.06,4.66,6.77,8.66,6.77.72,0,1.45-.09,2.17-.27l47.63-11.91c4.78-1.2,7.69-6.04,6.5-10.83Z"/>
  <path class="b" d="M42.49,151.6l47.63,11.91c.73.18,1.46.27,2.17.27,4,0,7.64-2.71,8.66-6.77,1.2-4.78-1.71-9.63-6.5-10.83l-47.63-11.91c-4.78-1.2-9.63,1.71-10.83,6.5-1.2,4.78,1.71,9.63,6.5,10.83Z"/>
  <path class="b" d="M209.18,134.28l-47.63,11.91c-4.78,1.2-7.69,6.04-6.5,10.83,1.01,4.06,4.66,6.77,8.66,6.77.72,0,1.45-.09,2.17-.27l47.63-11.91c4.78-1.2,7.69-6.04,6.5-10.83-1.2-4.78-6.04-7.69-10.83-6.5Z"/>
  <path class="b" d="M247.07,80.43c4.93,0,8.93-4,8.93-8.93v-24.61c0-17.42-13.88-32.37-32.08-31.73-13.55.47-31.27,1.88-44.9,5.96-11.85,3.55-25.17,10.47-35.56,16.49-9.74,5.64-21.87,5.92-31.74.7-11.85-6.27-27.45-13.7-40.98-17.27-11.44-3.02-25.91-4.47-37.66-5.19C14.53,14.71,0,29.81,0,47.66v66.36c0,4.93,4,8.93,8.93,8.93s8.93-4,8.93-8.93V47.66c0-8.3,6.58-14.45,14.13-13.98,11.5.71,24.53,2.08,34.2,4.63,11.46,3.02,25.55,9.64,37.19,15.79,4.97,2.63,10.28,4.35,15.7,5.19v162.47c-2.15-.61-4.25-1.45-6.25-2.52-12-6.4-28.14-14.17-42.08-17.85-11.32-2.99-25.6-4.44-37.27-5.17-8.85-.55-15.62-7.68-15.62-15.84v-25.52c0-4.93-4-8.93-8.93-8.93s-8.93,4-8.93,8.93v25.52c0,18.29,14.81,32.57,32.36,33.67,11.42.71,24.26,2.09,33.82,4.61,11.82,3.12,26.43,10.05,38.23,16.34,14.68,7.83,32.48,7.83,47.16,0,11.8-6.29,26.41-13.22,38.23-16.34,9.56-2.52,22.41-3.9,33.82-4.61,17.55-1.1,32.36-15.38,32.36-33.67v-66.74c0-4.93-4-8.93-8.93-8.93s-8.93,4-8.93,8.93v66.74c0,8.16-6.77,15.29-15.62,15.84-11.67.73-25.95,2.18-37.27,5.17-13.93,3.68-30.08,11.45-42.08,17.85-2,1.07-4.1,1.91-6.25,2.52V58.89c5.39-1.08,10.62-3.02,15.47-5.83,10.13-5.86,21.97-11.91,31.74-14.84,11.3-3.38,27.08-4.76,40.4-5.22,7.32-.25,13.6,5.77,13.6,13.88v24.61c0,4.93,4,8.93,8.93,8.93Z"/>
</svg>