<?xml version="1.0" encoding="UTF-8"?>
<svg id="a" data-name="Layer 1" xmlns="http://www.w3.org/2000/svg" viewBox="0 0 256 256">
  <defs>
    <style>
      .b {
        fill: #000;
        stroke-width: 0px;
      }
    </style>
  </defs>
  <path  d="M237.86,56.05l-79.67-37.35c-9.62-4.51-19.77-6.79-30.19-6.79s-20.58,2.29-30.19,6.79c-4.47,2.09-6.39,7.41-4.29,11.88,2.09,4.47,7.41,6.39,11.88,4.29,14.58-6.84,30.64-6.84,45.22,0l79.67,37.35c5.79,2.72,7.86,9.07,7.86,14.1s-2.06,11.39-7.86,14.1l-79.67,37.35c-14.58,6.84-30.64,6.84-45.22,0L25.72,100.43c-5.79-2.72-7.86-9.07-7.86-14.1s2.06-11.39,7.86-14.1l34.63-16.24c4.47-2.09,6.39-7.41,4.29-11.88-2.09-4.47-7.41-6.39-11.88-4.29l-34.63,16.24C6.95,61.3,0,72.9,0,86.33v65.49c0,4.93,4,8.93,8.93,8.93s8.93-4,8.93-8.93v-35.35c.09.04.18.09.28.14l17.58,8.24v58.23c0,15.53,8.08,29.66,21.1,36.87,19.9,11.02,48.4,24.15,71.18,24.15,4.93,0,8.93-4,8.93-8.93s-4-8.93-8.93-8.93c-14.8,0-37.01-7.78-62.53-21.91-7.33-4.06-11.89-12.2-11.89-21.24v-49.86l44.23,20.73c9.62,4.51,19.77,6.79,30.19,6.79s20.58-2.29,30.19-6.79l44.23-20.73v49.86c0,9.04-4.56,17.18-11.89,21.24-7.38,4.09-14.63,7.71-21.54,10.77-4.51,2-6.55,7.27-4.55,11.78,1.48,3.33,4.74,5.32,8.17,5.32,1.21,0,2.44-.25,3.61-.77,7.39-3.27,15.12-7.13,22.96-11.48,13.01-7.21,21.1-21.33,21.1-36.87v-58.23l17.58-8.24c11.19-5.24,18.14-16.84,18.14-30.27s-6.95-25.03-18.14-30.27Z"/>
</svg>