<svg fill="#000000" version="1.1" id="Capa_1" xmlns="http://www.w3.org/2000/svg" xmlns:xlink="http://www.w3.org/1999/xlink" 
	 viewBox="0 0 64 64" xml:space="preserve">
    <g>
        <g id="research-analysis-development-experiment-data_1_">
            <path d="M11,56c-3.86,0-7,3.141-7,7c0,0.553,0.448,1,1,1h12c0.552,0,1-0.447,1-1C18,59.141,14.86,56,11,56z M6.101,62
                c0.464-2.279,2.485-4,4.899-4s4.435,1.721,4.899,4H6.101z" fill="url(#paint0_linear)"/>
            <path d="M9.785,55.688c0.418,0.209,0.87,0.313,1.32,0.313c0.405,0,0.81-0.084,1.188-0.255c0.79-0.354,1.354-1.027,1.587-1.894
                c0.372-1.377-0.193-2.771-0.728-3.832c-0.058-0.113-0.185-0.311-0.717-1.112c-0.125-0.187-0.229-0.345-0.271-0.409
                c-0.097-0.168-0.243-0.31-0.43-0.4c-0.491-0.239-1.085-0.038-1.332,0.452c-0.007,0.015-0.014,0.029-0.021,0.043
                c-0.149,0.308-0.339,0.546-0.632,0.792C8.937,50.077,8,51.073,8,52.68C8,53.985,8.684,55.138,9.785,55.688L9.785,55.688z
                M11.041,50.918c0.072-0.06,0.14-0.121,0.206-0.183c0.059,0.09,0.103,0.157,0.121,0.188c0.345,0.684,0.78,1.678,0.583,2.408
                c-0.096,0.354-0.312,0.518-0.476,0.591c-0.247,0.11-0.544,0.102-0.796-0.023C10.26,53.689,10,53.223,10,52.68
                C10,52.044,10.292,51.551,11.041,50.918z" fill="url(#paint0_linear)"/>
            <path d="M63.987,6.937c-0.006-0.088-0.023-0.173-0.051-0.257c-0.011-0.032-0.019-0.063-0.034-0.094
                c-0.049-0.106-0.11-0.207-0.196-0.293l-6-6c-0.086-0.086-0.188-0.148-0.294-0.197c-0.03-0.014-0.059-0.022-0.09-0.032
                c-0.086-0.029-0.172-0.047-0.263-0.052C57.039,0.011,57.021,0,57,0H42c-2.757,0-5,2.243-5,5v24c0,2.757,2.243,5,5,5h9v4
                c0,1.654,1.346,3,3,3h1c0.551,0,1,0.449,1,1s-0.449,1-1,1h-6c-1.654,0-3,1.346-3,3s1.346,3,3,3h1c0.551,0,1,0.448,1,1v4
                c0,0.552-0.449,1-1,1h-8v-5.838l0.949-2.846c0.102-0.305,0.05-0.64-0.138-0.901C42.623,45.154,42.321,45,42,45h-7V33
                c0-0.265-0.105-0.52-0.293-0.707l-21-21c-0.287-0.287-0.716-0.373-1.09-0.217C12.244,11.231,12,11.596,12,12v6h-2V0H8v18
                c-0.308,0-0.599,0.142-0.788,0.385s-0.257,0.559-0.182,0.858l0.703,2.811C7.313,22.173,7,22.543,7,23v9.764l-4.447,8.894
                C2.181,42.402,2.149,43.239,2.421,44H1c-0.552,0-1,0.448-1,1v19h2V46h3.236h11.527H20v18h2V45c0-0.552-0.448-1-1-1h-1.421
                c0.273-0.761,0.24-1.598-0.131-2.342L15,32.764V23c0-0.457-0.313-0.827-0.733-0.946l0.703-2.811
                c0.075-0.299,0.007-0.615-0.182-0.858S14.308,18,14,18v-3.586l19,19V45h-5c-0.552,0-1,0.448-1,1v15c0,1.654,1.346,3,3,3h9
                c1.654,0,3-1.346,3-3v-4h8c1.654,0,3-1.346,3-3v-4c0-1.654-1.346-3-3-3h-1c-0.551,0-1-0.449-1-1s0.449-1,1-1h6
                c1.654,0,3-1.346,3-3s-1.346-3-3-3h-1c-0.551,0-1-0.449-1-1v-4h6c2.757,0,5-2.243,5-5V7C64,6.978,63.989,6.959,63.987,6.937z
                M8.895,33.447C8.964,33.309,9,33.155,9,33v-9h4v9c0,0.155,0.036,0.309,0.105,0.447L14.382,36H7.618L8.895,33.447z M12.219,22
                H9.781l-0.5-2h3.438L12.219,22z M17.615,43.525C17.526,43.668,17.267,44,16.764,44H5.236c-0.503,0-0.763-0.332-0.851-0.475
                c-0.088-0.143-0.269-0.522-0.043-0.973L6.618,38h8.764l2.276,4.553C17.883,43.003,17.703,43.383,17.615,43.525z M40,61
                c0,0.552-0.449,1-1,1h-9c-0.551,0-1-0.448-1-1v-1h2v-2h-2v-2h2v-2h-2v-2h2v-2h-2v-3h4v2h2v-2h5.613l-0.562,1.684
                C40.017,48.786,40,48.893,40,49v6h-1.184c-0.414-1.161-1.514-2-2.816-2c-1.654,0-3,1.346-3,3s1.346,3,3,3
                c1.302,0,2.402-0.839,2.816-2H40V61z M37,56c0,0.552-0.449,1-1,1s-1-0.448-1-1s0.449-1,1-1S37,55.448,37,56z M60.586,6H58V3.414
                L60.586,6z M59,32H42c-1.654,0-3-1.346-3-3V5c0-1.654,1.346-3,3-3h14v5c0,0.552,0.448,1,1,1h5v21C62,30.654,60.654,32,59,32z" fill="url(#paint0_linear)"/>
            <path d="M48,18c3.86,0,7-3.14,7-7s-3.14-7-7-7s-7,3.14-7,7S44.14,18,48,18z M48,16c-1.017,0-1.962-0.309-2.753-0.833L48.414,12
                h4.485C52.434,14.279,50.414,16,48,16z M52.899,10H49V6.101C50.956,6.5,52.5,8.044,52.899,10z M47,6.101v4.485l-3.167,3.167
                C43.309,12.962,43,12.017,43,11C43,8.586,44.721,6.566,47,6.101z" fill="url(#paint0_linear)"/>
            <rect x="53" y="19" width="7" height="2" fill="url(#paint0_linear)"/>
            <rect x="41" y="23" width="19" height="2" fill="url(#paint0_linear)"/>
            <rect x="41" y="27" width="19" height="2" fill="url(#paint0_linear)"/>
            <rect x="41" y="19" width="3" height="2" fill="url(#paint0_linear)"/>
        </g>
    </g>
    <defs>
        <linearGradient id="paint0_linear" x1="-2" y1="-2" x2="2" y2="2" gradientUnits="userSpaceOnUse">
            <stop offset="0.259336" stop-color="#FFDB6E"/>
            <stop offset="1" stop-color="#FFBC5E"/>
        </linearGradient>
    </defs>
</svg>