<?xml version="1.0" encoding="UTF-8"?>
<svg id="Layer_2" data-name="Layer 2" xmlns="http://www.w3.org/2000/svg" viewBox="0 0 300 300">
  <defs>
    <style>
      .cls-1 {
        fill: #29332c;
      }

      .cls-1, .cls-2 {
        stroke-width: 0px;
      }

      .cls-2 {
        fill: #fff;
      }
    </style>
  </defs>
  <g id="Layer_1-2" data-name="Layer 1">
    <rect class="cls-1" width="300" height="300" rx="26.57" ry="26.57"/>
    <g id="gay4Y5.tif">
      <g>
        <path class="cls-2" d="M204.86,277.46c-7.09-3.49-14.16-7.01-21.27-10.45-5.56-2.69-11.16-5.27-16.96-8.01,4.51-2.47,8.79-4.68,12.95-7.11,13.77-8.04,21.74-20.1,24.84-35.65,1.95-9.8,2.56-19.69,2.62-29.62.19-32.59.22-65.18.32-97.77,0-.57,0-1.15,0-1.92h41.7v2.65c0,31.68.16,63.37-.08,95.05-.09,11.68-.61,23.41-1.83,35.02-1.72,16.47-7.52,31.48-19.94,42.95-5.17,4.77-11.54,8.24-17.4,12.25-1.41.97-2.96,1.74-4.45,2.61h-.5Z"/>
        <path class="cls-2" d="M140.96,85.68V22.55h41.72c0,.89,0,1.78,0,2.67,0,62.46-.01,124.92.05,187.39,0,2.07-.55,2.88-2.63,3.22-13.55,2.25-27.08,4.59-40.86,4.76-7.54.09-15.12.44-22.62-.13-16.21-1.22-31.66-5-44.7-15.53-9.63-7.78-15.55-17.9-18.36-29.82-4.06-17.18-3.75-34.28,2.85-50.79,8.41-21.06,24.46-33.4,46.26-38.47,12.65-2.94,25.41-3,38.29-.16ZM140.81,186.6c.09-.94.16-1.35.16-1.76,0-21.21-.02-42.41.05-63.62,0-1.62-.68-2.15-2.02-2.49-6.08-1.54-12.18-1.92-18.43-1.04-10.19,1.43-18.21,6.12-22.79,15.48-4.95,10.11-5.36,20.8-2.82,31.67,1.92,8.22,6.24,14.7,13.83,18.7,5.06,2.66,10.55,3.79,16.22,3.75,5.27-.04,10.55-.44,15.8-.68Z"/>
        <path class="cls-2" d="M248.84,65.24h-41.32V22.54h41.32v42.7Z"/>
      </g>
    </g>
  </g>
</svg>