<?xml version="1.0" encoding="UTF-8"?>
<svg id="a" data-name="Layer 1" xmlns="http://www.w3.org/2000/svg" viewBox="0 0 256 256">
  <defs>
    <style>
      .b {
        fill: #000;
        stroke-width: 0px;
      }
    </style>
  </defs>
  <path d="M92.97,39.33c.94.33,1.9.49,2.84.49,3.51,0,6.81-2.19,8.05-5.69,3.61-10.21,13.31-17.07,24.15-17.07s20.54,6.86,24.15,17.07c1.57,4.44,6.44,6.77,10.89,5.2,4.44-1.57,6.77-6.45,5.2-10.89C162.23,11.43,146.06,0,128,0s-34.22,11.43-40.24,28.45c-1.57,4.44.76,9.32,5.2,10.89Z"/>
  <path d="M240.35,70.54c-1.86-1.99-3.96-3.82-6.24-5.43-11.63-8.22-26.51-8.22-56.15-8.22h-99.92c-29.65,0-44.53,0-56.16,8.22-2.28,1.61-4.37,3.44-6.24,5.42-9.96,10.64-9.96,24.75-9.96,50.37,0,6.94,0,11.96,3.31,16.58.61.86,1.32,1.68,2.09,2.44,1.74,1.71,3.67,2.89,5.99,3.86.04,18.13.29,36.41,1.91,52.09.97,9.32,2.45,18.07,4.8,25.53,2.31,7.34,5.73,14.29,11.14,19.1,11.56,10.28,26.89,13.51,47.05,14.73,4.7.28,8.75-3.3,9.03-8,.28-4.7-3.3-8.75-8-9.03-19.5-1.18-29.74-4.23-36.74-10.45-2.09-1.86-4.3-5.43-6.2-11.47-1.87-5.92-3.19-13.4-4.1-22.16-1.4-13.46-1.73-29.13-1.8-45.44l56.86,14.83v6.15c0,5.85,3.51,11.03,8.94,13.2l7.97,3.19c6.47,2.59,13.27,3.88,20.07,3.88s13.6-1.29,20.07-3.88l7.96-3.19c5.43-2.17,8.94-7.36,8.94-13.2v-6.15l29.62-7.72c4.56-1.19,7.29-5.85,6.1-10.41-1.19-4.56-5.85-7.29-10.41-6.1l-25.31,6.6v-.81c0-7.84-6.38-14.22-14.22-14.22h-45.51c-7.84,0-14.22,6.38-14.22,14.22v.81l-59.49-15.52c-3.75-.98-7.62-1.99-8.51-2.62-.01-.01-.02-.02-.03-.03-.24-1.03-.24-4.09-.24-6.8,0-23.46.2-33.2,5.35-38.7,1.07-1.15,2.3-2.21,3.63-3.15,7.2-5.09,21.08-5.09,46.3-5.09h99.92c25.21,0,39.1,0,46.3,5.09,1.33.94,2.56,2,3.63,3.15,5.15,5.5,5.35,15.24,5.35,38.7,0,2.72,0,5.78-.24,6.8,0,.01-.02.02-.03.03-.35.25-1.48.73-4.82,1.64-3.96,1.08-6.5,4.77-6.27,8.71h-.01c0,20.83-.15,41.14-2.02,57.8-.94,8.32-2.27,15.39-4.1,20.99-1.86,5.7-4,9.09-6.01,10.88-5.63,5-13.4,8-26.57,9.57-13.32,1.59-30.82,1.61-55.17,1.61-4.71,0-8.53,3.82-8.53,8.53s3.82,8.53,8.53,8.53c23.92,0,42.63.01,57.19-1.73,14.72-1.76,26.51-5.43,35.88-13.76,5.23-4.65,8.59-11.29,10.89-18.33,2.34-7.14,3.84-15.49,4.84-24.39,1.82-16.14,2.08-35.17,2.12-54,2.21-.93,4.22-2.13,6-3.87.77-.76,1.47-1.58,2.08-2.43,3.31-4.63,3.31-9.64,3.31-16.59,0-25.61,0-39.72-9.96-50.37ZM108.09,147.91h39.82v19.82l-6.18,2.47c-8.86,3.54-18.61,3.54-27.47,0l-6.18-2.47v-19.82Z"/>
</svg>