<?xml version="1.0" encoding="UTF-8"?>
<svg id="a" data-name="Layer 1" xmlns="http://www.w3.org/2000/svg" viewBox="0 0 256 256">
  <defs>
    <style>
      .b {
        fill: #000;
        stroke-width: 0px;
      }
    </style>
  </defs>
  <path d="M227.56,0H28.44C12.73,0,0,12.73,0,28.44v199.11c0,15.71,12.73,28.44,28.44,28.44h199.11c15.71,0,28.44-12.73,28.44-28.44V28.44c0-15.71-12.73-28.44-28.44-28.44ZM77.4,220.44h-38.18v-123.26h38.18v123.26ZM58.13,81.05c-12.47,0-22.58-10.18-22.58-22.74s10.11-22.74,22.58-22.74,22.57,10.18,22.57,22.74-10.1,22.74-22.57,22.74ZM220.44,220.44h-37.99v-64.7c0-17.74-6.74-27.65-20.78-27.65-15.27,0-23.26,10.32-23.26,27.65v64.7h-36.61v-123.26h36.61v16.6s11.01-20.37,37.16-20.37,44.86,15.97,44.86,48.98v78.04Z"/>
</svg>