<?xml version="1.0" encoding="UTF-8"?>
<svg id="a" data-name="Layer 1" xmlns="http://www.w3.org/2000/svg" viewBox="0 0 256 256">
  <defs>
    <style>
      .c {
        fill: #000;
        stroke-width: 0px;
      }
    </style>
  </defs>
  <g id="b" data-name="research-analysis-development-experiment-data">
    <path d="M44,224c-15.44,0-28,12.56-28,28,0,2.21,1.79,4,4,4h48c2.21,0,4-1.79,4-4,0-15.44-12.56-28-28-28ZM24.4,248c1.86-9.12,9.94-16,19.6-16s17.74,6.88,19.6,16H24.4Z"/>
    <path d="M39.14,222.75c1.67.84,3.48,1.25,5.28,1.25,1.62,0,3.24-.34,4.75-1.02,3.16-1.42,5.42-4.11,6.35-7.58,1.49-5.51-.77-11.08-2.91-15.33-.23-.45-.74-1.24-2.87-4.45-.5-.75-.92-1.38-1.08-1.64-.39-.67-.97-1.24-1.72-1.6-1.96-.96-4.34-.15-5.33,1.81-.03.06-.06.12-.08.17-.6,1.23-1.36,2.18-2.53,3.17-3.25,2.76-7,6.75-7,13.18,0,5.22,2.74,9.83,7.14,12.03h0ZM44.16,203.67c.29-.24.56-.48.82-.73.24.36.41.63.48.75,1.38,2.74,3.12,6.71,2.33,9.63-.38,1.42-1.25,2.07-1.9,2.36-.99.44-2.18.41-3.18-.09-1.68-.84-2.72-2.7-2.72-4.88,0-2.54,1.17-4.52,4.16-7.05Z"/>
    <path d="M255.95,27.75c-.02-.35-.09-.69-.2-1.03-.04-.13-.08-.25-.14-.38-.2-.42-.44-.83-.78-1.17L230.82,1.17c-.34-.34-.75-.59-1.18-.79-.12-.06-.24-.09-.36-.13-.34-.12-.69-.19-1.05-.21-.08,0-.15-.05-.24-.05h-60c-11.03,0-20,8.97-20,20v96c0,11.03,8.97,20,20,20h36v16c0,6.62,5.38,12,12,12h4c2.2,0,4,1.8,4,4s-1.8,4-4,4h-24c-6.62,0-12,5.38-12,12s5.38,12,12,12h4c2.2,0,4,1.79,4,4v16c0,2.21-1.8,4-4,4h-32v-23.35l3.8-11.38c.41-1.22.2-2.56-.55-3.6-.75-1.04-1.96-1.66-3.24-1.66h-28v-48c0-1.06-.42-2.08-1.17-2.83L54.83,45.17c-1.15-1.15-2.86-1.49-4.36-.87-1.49.62-2.47,2.08-2.47,3.7v24h-8V0h-8v72c-1.23,0-2.4.57-3.15,1.54s-1.03,2.24-.73,3.43l2.81,11.24c-1.68.48-2.93,1.96-2.93,3.78v39.06l-17.79,35.58c-1.49,2.98-1.62,6.32-.53,9.37h-5.68c-2.21,0-4,1.79-4,4v76h8v-72h72v72h8v-76c0-2.21-1.79-4-4-4h-5.68c1.09-3.04.96-6.39-.52-9.37l-17.79-35.58v-39.06c0-1.83-1.25-3.31-2.93-3.78l2.81-11.24c.3-1.2.03-2.46-.73-3.43s-1.92-1.54-3.15-1.54v-14.34l76,76v46.34h-20c-2.21,0-4,1.79-4,4v60c0,6.62,5.38,12,12,12h36c6.62,0,12-5.38,12-12v-16h32c6.62,0,12-5.38,12-12v-16c0-6.62-5.38-12-12-12h-4c-2.2,0-4-1.8-4-4s1.8-4,4-4h24c6.62,0,12-5.38,12-12s-5.38-12-12-12h-4c-2.2,0-4-1.8-4-4v-16h24c11.03,0,20-8.97,20-20V28c0-.09-.04-.16-.05-.25ZM35.58,133.79c.28-.55.42-1.17.42-1.79v-36h16v36c0,.62.14,1.24.42,1.79l5.11,10.21h-27.06l5.11-10.21ZM48.88,88h-9.75l-2-8h13.75l-2,8ZM70.46,174.1c-.36.57-1.39,1.9-3.4,1.9H20.94c-2.01,0-3.05-1.33-3.4-1.9-.35-.57-1.08-2.09-.17-3.89l9.1-18.21h35.06l9.1,18.21c.9,1.8.18,3.32-.17,3.89ZM160,244c0,2.21-1.8,4-4,4h-36c-2.2,0-4-1.79-4-4v-4h8v-8h-8v-8h8v-8h-8v-8h8v-8h-8v-12h16v8h8v-8h22.45l-2.25,6.74c-.14.41-.2.84-.2,1.26v24h-4.74c-1.66-4.64-6.06-8-11.26-8-6.62,0-12,5.38-12,12s5.38,12,12,12c5.21,0,9.61-3.36,11.26-8h4.74v16ZM148,224c0,2.21-1.8,4-4,4s-4-1.79-4-4,1.8-4,4-4,4,1.79,4,4ZM242.34,24h-10.34v-10.34l10.34,10.34ZM236,128h-68c-6.62,0-12-5.38-12-12V20c0-6.62,5.38-12,12-12h56v20c0,2.21,1.79,4,4,4h20v84c0,6.62-5.38,12-12,12Z"/>
    <path d="M192,72c15.44,0,28-12.56,28-28s-12.56-28-28-28-28,12.56-28,28,12.56,28,28,28ZM192,64c-4.07,0-7.85-1.24-11.01-3.33l12.67-12.67h17.94c-1.86,9.12-9.94,16-19.6,16ZM211.6,40h-15.6v-15.6c7.82,1.6,14,7.77,15.6,15.6ZM188,24.4v17.94l-12.67,12.67c-2.1-3.16-3.33-6.94-3.33-11.01,0-9.66,6.88-17.74,16-19.6Z"/>
    <rect x="212" y="76" width="28" height="8"/>
    <rect x="164" y="92" width="76" height="8"/>
    <rect x="164" y="108" width="76" height="8"/>
    <rect x="164" y="76" width="12" height="8"/>
  </g>
</svg>