<?xml version="1.0" encoding="UTF-8"?>
<svg id="a" data-name="Layer 1" xmlns="http://www.w3.org/2000/svg" viewBox="0 0 256 256">
  <defs>
    <style>
      .b {
        fill: #000;
        stroke-width: 0px;
      }
    </style>
  </defs>
  <path d="M223.26,142.88c-4.93,0-8.93,4-8.93,8.93,0,42.38,0,63.66-11.33,74.99-11.33,11.33-32.61,11.33-74.99,11.33s-63.66,0-74.99-11.33c-11.33-11.33-11.33-32.61-11.33-74.99v-47.63c0-42.38,0-63.66,11.33-74.99,3.41-3.41,7.73-5.8,13.25-7.47,8.63,12.94,13.71,20.25,21.57,25.13,1.63,1.01,3.34,1.93,5.08,2.72,8.81,4.01,18.14,4.01,35.09,4.01s26.28,0,35.09-4c1.74-.79,3.46-1.71,5.09-2.72,7.85-4.88,12.93-12.19,21.57-25.13,5.52,1.67,9.84,4.05,13.26,7.47,11.33,11.33,11.33,32.61,11.33,74.99,0,4.93,4,8.93,8.93,8.93s8.93-4,8.93-8.93c0-23.16,0-39.89-1.82-53.45-2.09-15.52-6.63-26.06-14.74-34.17-8.11-8.11-18.65-12.66-34.17-14.74-13.56-1.82-30.29-1.82-53.45-1.82s-39.89,0-53.45,1.82c-15.52,2.09-26.06,6.63-34.17,14.74-8.11,8.11-12.65,18.65-14.74,34.17-1.82,13.56-1.82,30.29-1.82,53.45v47.63c0,23.16,0,39.89,1.82,53.45,2.09,15.52,6.63,26.06,14.74,34.17,8.11,8.11,18.65,12.66,34.17,14.74,13.56,1.82,30.29,1.82,53.45,1.82s39.89,0,53.45-1.82c15.52-2.09,26.06-6.63,34.17-14.74,8.11-8.11,12.66-18.65,14.74-34.17,1.82-13.56,1.82-30.29,1.82-53.45,0-4.93-4-8.93-8.93-8.93ZM170.27,18.64c-4.71,6.84-7.91,10.8-11.53,13.04-.98.61-2,1.16-3.05,1.63-5.29,2.4-12.77,2.4-27.69,2.4s-22.41,0-27.69-2.4c-1.05-.48-2.07-1.02-3.05-1.63-3.62-2.25-6.82-6.2-11.53-13.04,11.05-.78,24.89-.78,42.27-.78s31.22,0,42.27.78Z"/>
  <path d="M92.28,202.42c-4.93,0-8.93,4-8.93,8.93s4,8.93,8.93,8.93h71.44c4.93,0,8.93-4,8.93-8.93s-4-8.93-8.93-8.93h-71.44Z"/>
</svg>