<?xml version="1.0" encoding="UTF-8"?>
<svg id="a" data-name="Layer 1" xmlns="http://www.w3.org/2000/svg" viewBox="0 0 256 256">
  <defs>
    <style>
      .b {
        fill: #000;
        stroke-width: 0px;
      }
    </style>
  </defs>
  <path d="M128,222.97c-53.46,0-89.47-28.75-110.26-52.86C7.44,158.16,0,149.53,0,128s7.44-30.16,17.75-42.11c20.79-24.11,56.79-52.86,110.25-52.86,6.84,0,12.39,5.55,12.39,12.39s-5.55,12.39-12.39,12.39c-19.69,0-38.26,4.77-55.19,14.19-13.21,7.35-25.43,17.46-36.3,30.08-9.25,10.73-11.73,13.61-11.73,25.93s2.49,15.2,11.73,25.93c10.87,12.61,23.09,22.73,36.3,30.08,16.93,9.41,35.5,14.19,55.19,14.19s38.26-4.77,55.19-14.19c13.21-7.35,25.43-17.46,36.3-30.08,9.25-10.73,11.73-13.61,11.73-25.93s-2.49-15.2-11.73-25.93c-9.64-11.18-20.37-20.44-31.9-27.51-5.83-3.58-7.66-11.2-4.08-17.04,3.58-5.83,11.2-7.66,17.04-4.08,13.71,8.41,26.4,19.33,37.71,32.45,10.3,11.95,17.74,20.58,17.74,42.11s-7.44,30.16-17.74,42.11c-20.79,24.11-56.79,52.86-110.26,52.86Z"/>
  <path d="M128,173.42c-25.04,0-45.42-20.38-45.42-45.42s20.38-45.42,45.42-45.42,45.42,20.37,45.42,45.42-20.37,45.42-45.42,45.42ZM128,107.35c-11.38,0-20.65,9.26-20.65,20.64s9.26,20.65,20.65,20.65,20.64-9.26,20.64-20.65-9.26-20.64-20.64-20.64Z"/>
</svg>