<?xml version="1.0" encoding="UTF-8"?>
<svg id="a" data-name="Layer 1" xmlns="http://www.w3.org/2000/svg" viewBox="0 0 256 256">
  <defs>
    <style>
      .b {
        fill: #000;
        stroke-width: 0px;
      }
    </style>
  </defs>
  <path d="M151.81,256c-4.93,0-8.93-4-8.93-8.93s4-8.93,8.93-8.93c42.38,0,63.66,0,74.99-11.33,10.91-10.91,11.33-17.2,11.33-63.08,0-4.93,4-8.93,8.93-8.93s8.93,4,8.93,8.93c0,23.13,0,37.09-1.88,47.84-2.01,11.49-6.12,19.31-14.69,27.87-8.11,8.11-18.65,12.65-34.17,14.74-13.56,1.82-30.29,1.82-53.45,1.82Z"/>
  <path d="M8.93,101.21c-4.93,0-8.93-4-8.93-8.93,0-23.13,0-37.09,1.88-47.84,2.01-11.49,6.12-19.31,14.69-27.87C24.67,8.46,35.21,3.91,50.74,1.82,64.3,0,81.03,0,104.19,0,109.12,0,113.12,4,113.12,8.93s-4,8.93-8.93,8.93c-42.38,0-63.66,0-74.99,11.33-10.91,10.91-11.33,17.2-11.33,63.08,0,4.93-4,8.93-8.93,8.93Z"/>
  <path d="M128,196.47c-38.54,0-64.5-20.72-79.49-38.11-7.43-8.61-12.79-14.84-12.79-30.36s5.37-21.74,12.79-30.36c14.99-17.38,40.94-38.11,79.49-38.11,4.93,0,8.93,4,8.93,8.93s-4,8.93-8.93,8.93c-14.19,0-27.58,3.44-39.79,10.23-9.53,5.3-18.33,12.59-26.17,21.68-6.67,7.73-8.46,9.81-8.46,18.69s1.79,10.96,8.46,18.69c7.84,9.09,16.64,16.39,26.17,21.68,12.21,6.79,25.6,10.23,39.79,10.23s27.58-3.44,39.79-10.23c9.53-5.3,18.33-12.59,26.17-21.68,6.67-7.73,8.46-9.81,8.46-18.69s-1.79-10.96-8.46-18.69c-6.95-8.06-14.69-14.73-23-19.83-4.2-2.58-5.52-8.08-2.94-12.28,2.58-4.2,8.08-5.52,12.28-2.94,9.89,6.06,19.03,13.93,27.19,23.39,7.43,8.61,12.79,14.84,12.79,30.36s-5.37,21.74-12.79,30.36c-14.99,17.39-40.95,38.11-79.49,38.11Z"/>
  <path d="M128,160.74c-18.06,0-32.74-14.69-32.74-32.74s14.69-32.74,32.74-32.74,32.74,14.69,32.74,32.74-14.69,32.74-32.74,32.74ZM128,113.12c-8.21,0-14.88,6.68-14.88,14.88s6.68,14.88,14.88,14.88,14.88-6.68,14.88-14.88-6.68-14.88-14.88-14.88Z"/>
  <path d="M104.19,256c-4.17,0-8.14,0-11.93-.01-4.93-.01-8.92-4.02-8.9-8.96.01-4.92,4.01-8.9,8.93-8.9,0,0,.02,0,.03,0,3.78.01,7.73.01,11.88.01,4.93,0,8.93,4,8.93,8.93s-4,8.93-8.93,8.93ZM56.57,254.79c-.29,0-.59-.01-.89-.04-18.51-1.82-30.2-6.4-39.12-15.31-8.57-8.57-12.68-16.38-14.69-27.87-1.88-10.75-1.88-24.71-1.88-47.84,0-4.93,4-8.93,8.93-8.93s8.93,4,8.93,8.93c0,45.89.42,52.17,11.33,63.08,5.82,5.82,14,8.77,28.24,10.17,4.91.48,8.5,4.85,8.01,9.76-.45,4.61-4.34,8.06-8.88,8.06Z"/>
  <path d="M247.07,101.21c-4.93,0-8.93-4-8.93-8.93,0-45.89-.42-52.17-11.33-63.08-5.82-5.82-14-8.77-28.24-10.17-4.91-.48-8.5-4.85-8.01-9.76.48-4.91,4.85-8.5,9.76-8.01,18.5,1.82,30.2,6.4,39.12,15.31,8.57,8.57,12.68,16.38,14.69,27.87,1.88,10.76,1.88,24.71,1.88,47.84,0,4.93-4,8.93-8.93,8.93ZM163.72,17.87s-.02,0-.03,0c-3.78-.01-7.73-.01-11.88-.01-4.93,0-8.93-4-8.93-8.93S146.88,0,151.81,0C155.98,0,159.95,0,163.75.01c4.93.01,8.92,4.02,8.9,8.96-.01,4.92-4.01,8.9-8.93,8.9Z"/>
</svg>