<?xml version="1.0" encoding="UTF-8"?>
<svg id="a" data-name="Layer 1" xmlns="http://www.w3.org/2000/svg" viewBox="0 0 256 256">
  <defs>
    <style>
      .b {
        fill: #000;
        stroke-width: 0px;
      }
    </style>
  </defs>
  <path class="b" d="M183.53,216.88c-.98-.4-2.04-.62-3.17-.62s-2.19.23-3.17.62c-.98.42-1.87,1-2.6,1.75l-.06.04c-.42.42-.81.9-1.12,1.42-.17.27-.33.56-.48.87h-13.14v-11.42c-2.02.94-4.12,1.65-6.27,2.08-.37.08-.73.15-1.1.21v12.79c0,1.02.42,1.94,1.08,2.6s1.58,1.08,2.6,1.08h16.96c.12.25.27.5.44.75.29.44.62.85,1,1.23l.06.06c.75.75,1.67,1.37,2.69,1.79.98.4,2.04.62,3.17.62s2.15-.21,3.1-.6l.06-.02c1.02-.42,1.92-1.04,2.69-1.79.75-.75,1.37-1.67,1.79-2.69.4-.98.62-2.04.62-3.17s-.23-2.17-.62-3.17c-.42-1.02-1.04-1.94-1.79-2.69-.79-.73-1.71-1.35-2.73-1.77h0ZM123.43,138.76h-15.42l-2.21,7.25h-13.87l16.56-44h14.87l16.5,44h-14.23l-2.21-7.25h0ZM120.55,129.22l-4.81-15.81-4.83,15.81h9.65ZM143.7,101.99h13.64v44h-13.64v-44h0ZM133.3,56.89c-2.25,1.62-4.33,3.81-6.15,6.65-.08.15-.21.27-.35.35-.56.35-1.31.19-1.67-.35-1.81-2.83-3.9-5.02-6.15-6.65-2.42-1.75-5.02-2.85-7.71-3.4h-.04c-2.62-.54-5.31-.54-7.9-.08-2.73.48-5.37,1.48-7.75,2.85-2.35,1.37-4.48,3.15-6.25,5.19-1.71,1.98-3.08,4.25-3.98,6.69h0c-.15.37-.27.77-.4,1.19-.1.37-.23.79-.31,1.21-.1.54-.56.94-1.15.96-2.79.42-5.56,1.44-8.15,2.96-2.62,1.56-5.06,3.69-7.17,6.23-2.08,2.54-3.83,5.54-5.08,8.87-1.17,3.12-1.87,6.56-2.02,10.21-.02.48-.02.94-.02,1.42,0,.44.02.9.02,1.37.02.4-.15.81-.5,1.06-1.71,1.23-3.25,2.5-4.62,3.81-1.4,1.35-2.62,2.75-3.69,4.19-1.73,2.35-3,4.81-3.85,7.29-.9,2.58-1.33,5.23-1.37,7.83-.02,2.5.31,4.98,1.02,7.37.71,2.44,1.79,4.81,3.19,7.02h0c.79,1.27,1.69,2.52,2.67,3.69,1,1.19,2.08,2.31,3.25,3.37.29.27.46.71.37,1.12-.33,1.58-.5,3.15-.56,4.69-.04,1.58.04,3.15.25,4.67.4,2.79,1.21,5.46,2.35,7.92,1.21,2.62,2.79,5.02,4.62,7.12,1.77,2.06,3.79,3.85,5.96,5.33,2.19,1.5,4.5,2.67,6.87,3.48,1.06.35,2.15.65,3.25.85,1.04.21,2.08.33,3.1.37.56-.02,1.08.37,1.21.96.54,2.48,1.54,4.81,2.92,6.92,1.44,2.21,3.25,4.17,5.33,5.79,2.62,2.04,5.71,3.58,8.96,4.4,3.06.77,6.29.92,9.46.25,2.83-.58,5.58-1.79,8.12-3.71,2.33-1.77,4.5-4.15,6.31-7.23.1-.19.27-.33.48-.44.58-.31,1.31-.08,1.62.5,1.5,2.79,3.33,5.02,5.37,6.71,2.21,1.81,4.65,3.04,7.21,3.75,3.27.9,6.69.9,10,.21,3.54-.73,6.96-2.27,9.9-4.4,2.31-1.65,4.35-3.67,5.98-5.96,1.54-2.15,2.69-4.54,3.35-7.06.08-.48.46-.9.98-.98,3.06-.54,6.08-1.81,8.85-3.71,2.77-1.9,5.29-4.4,7.35-7.37,1.9-2.75,3.42-5.92,4.4-9.37.92-3.23,1.35-6.73,1.21-10.42-.04-.42.15-.83.52-1.08,1.79-1.23,3.37-2.52,4.79-3.83,1.44-1.37,2.71-2.79,3.79-4.27h0c1.67-2.25,2.9-4.58,3.75-6.98.87-2.48,1.33-5,1.42-7.52.06-2.44-.23-4.85-.85-7.23-.62-2.4-1.6-4.71-2.87-6.9l-.04-.04c-.83-1.44-1.81-2.81-2.9-4.15-1.08-1.33-2.31-2.58-3.62-3.77-.31-.27-.48-.71-.4-1.15.29-1.44.48-2.87.54-4.29.06-1.44.02-2.85-.12-4.25-.31-2.9-1.08-5.65-2.21-8.21-1.19-2.71-2.77-5.21-4.62-7.4-1.79-2.12-3.85-3.98-6.06-5.52-2.21-1.54-4.56-2.75-6.96-3.56l-.06-.02c-1.27-.44-2.56-.75-3.83-.96h-.04c-1.25-.21-2.5-.29-3.73-.27-.56.04-1.1-.33-1.25-.92-.21-.85-.48-1.69-.79-2.5-.33-.83-.71-1.65-1.15-2.46-1.12-2.08-2.6-4-4.33-5.65-1.77-1.69-3.79-3.12-5.96-4.23-2.23-1.12-4.67-1.92-7.17-2.27-2.37-.33-4.81-.29-7.21.21-2.69.65-5.33,1.75-7.75,3.5h0ZM167.36,80.35c.15-.46.56-.81,1.08-.85.87-.06,1.77-.02,2.67.12.92.15,1.83.37,2.75.69,1.73.58,3.46,1.48,5.06,2.6,1.58,1.1,3.08,2.46,4.37,4l.02.04c1.35,1.6,2.5,3.4,3.35,5.35.81,1.83,1.35,3.79,1.58,5.85.15,1.37.15,2.81-.02,4.27-.15,1.35-.46,2.75-.94,4.15l-.02.08c-.29.87-.27,1.79,0,2.6.29.83.83,1.58,1.6,2.08l.06.04c1.46,1.08,2.75,2.27,3.87,3.52,1.17,1.27,2.17,2.65,3,4.06.92,1.56,1.62,3.19,2.06,4.85.46,1.65.67,3.31.6,4.96-.04,1.71-.37,3.42-.98,5.1-.58,1.6-1.44,3.19-2.56,4.73l-.02.02c-1.02,1.4-2.31,2.77-3.83,4.08-1.46,1.25-3.15,2.44-5.08,3.58l-.06.04c-.77.44-1.33,1.1-1.67,1.87s-.44,1.62-.27,2.46l.02.17c.4,3.19.21,6.23-.44,9-.71,3.02-1.94,5.73-3.54,8.04-1.23,1.77-2.65,3.29-4.17,4.5-1.56,1.25-3.25,2.17-4.98,2.73h-.02c-.62.19-1.31-.17-1.5-.79-2.35-7.69-6.42-10.17-13.29-13.71l-.15-.08c-.96-.46-2-.5-2.94-.21-.94.29-1.75.94-2.23,1.87l-.06.12c-.46.96-.5,2-.21,2.94.31.94.98,1.77,1.94,2.27,5.75,2.94,10,5.17,9.94,12.37-.02,2.15-.69,4.23-1.81,6.1-1.19,1.98-2.9,3.75-4.87,5.19-2.02,1.46-4.29,2.52-6.62,3.04-2.23.52-4.52.54-6.67-.04-3.62-1-5.98-3.42-7.56-6.35-1.5-2.79-2.33-6.04-2.94-9-.04-.1-.04-.23-.04-.33,0-1.5-1.17-2.48-2.69-2.92-.67-.21-1.4-.29-2.1-.29s-1.44.1-2.1.29c-1.5.46-2.67,1.44-2.67,2.92,0,.1-.02.19-.04.29-1.17,4.62-2.85,8.1-4.83,10.6-2.31,2.94-5.02,4.54-7.81,5.12-2.04.42-4.15.31-6.15-.21-2.1-.56-4.1-1.58-5.85-2.92-1.73-1.35-3.17-3-4.17-4.85-.96-1.77-1.52-3.73-1.52-5.73,0-7.58,4.58-10.12,10.64-13.23.96-.5,1.62-1.33,1.94-2.27.31-.96.25-2.02-.23-3-.5-.96-1.33-1.62-2.27-1.94-.94-.29-1.98-.25-2.94.21l-.06.02c-7.15,3.65-11.42,6.31-13.98,14.25-.15.52-.65.92-1.21.9-.71-.02-1.42-.1-2.15-.25-.71-.15-1.42-.33-2.08-.58-1.69-.58-3.37-1.44-4.96-2.52-1.56-1.08-3.02-2.37-4.31-3.87-1.33-1.54-2.48-3.27-3.35-5.17-.83-1.77-1.42-3.67-1.71-5.65v-.04c-.21-1.46-.25-2.98-.08-4.54.15-1.46.46-2.98.98-4.48l.02-.06c.29-.85.27-1.75.02-2.54l-.02-.04c-.27-.83-.81-1.56-1.56-2.08l-.04-.04c-1.33-1-2.54-2.06-3.6-3.23-1.08-1.17-2.04-2.42-2.83-3.71-.96-1.56-1.71-3.23-2.21-4.94-.48-1.67-.73-3.37-.71-5.12.02-1.77.33-3.58.96-5.35.6-1.69,1.48-3.37,2.69-5.02,1.02-1.4,2.27-2.77,3.77-4.08,1.44-1.27,3.06-2.48,4.94-3.62.69-.42,1.19-1,1.52-1.67l.02-.06c.33-.69.46-1.46.35-2.23-.02-.08-.02-.17-.02-.25v-.04c-.1-.73-.17-1.46-.21-2.17-.04-.77-.04-1.54-.02-2.29.1-2.73.62-5.29,1.48-7.6.92-2.48,2.21-4.71,3.75-6.6,1.27-1.56,2.73-2.87,4.25-3.9,1.52-1.02,3.12-1.75,4.77-2.17h0c.62-.19,1.31.17,1.5.79,1.29,4.08,2.92,6.65,6.02,9.54l.12.1c.77.71,1.77,1.04,2.75,1s1.94-.44,2.65-1.21l.06-.08c.71-.77,1.04-1.77,1-2.75s-.46-1.96-1.25-2.71c-2.5-2.31-3.06-3.75-3.81-6.08-.87-2.69-.73-5.31.12-7.65.58-1.6,1.5-3.1,2.67-4.42,1.15-1.31,2.54-2.48,4.08-3.37l.06-.04c1.58-.92,3.29-1.58,5.06-1.92,1.69-.31,3.42-.33,5.1.02,2.37.5,4.71,1.75,6.77,3.92,1.81,1.9,3.42,4.52,4.69,7.98l.02.04c.44,1.35,1.85,2.15,3.52,2.46.75.15,1.54.19,2.31.15h.02c.79-.04,1.54-.19,2.25-.42,1.25-.42,2.23-1.08,2.46-1.94v-.48c0-2.42,1.44-4.98,3.42-7.08,2.17-2.29,5.06-4.1,7.5-4.6,1.54-.31,3.1-.33,4.62-.1,1.58.25,3.12.75,4.58,1.48l.13.04c1.48.75,2.83,1.71,4.02,2.83,1.17,1.12,2.17,2.4,2.92,3.79,1.19,2.19,1.73,4.69,1.35,7.33-.33,2.31-.42,3.77-2.35,6.08l-.02.02c-.69.81-.98,1.83-.9,2.83.08.96.52,1.9,1.29,2.56l.12.1c.81.67,1.81.94,2.79.85.96-.08,1.9-.52,2.56-1.29l.1-.15c2-2.37,2.65-4.12,3.56-7.12h0ZM213.11,182.3c-.4-.98-.62-2.04-.62-3.17s.23-2.19.62-3.17c.42-.98,1-1.87,1.75-2.6l.04-.06c.42-.42.9-.81,1.42-1.12.27-.17.56-.33.87-.48v-13.14h-16.17c.02-.85.02-1.71-.02-2.58-.04-.48.17-.96.58-1.23,1.67-1.15,3.19-2.33,4.56-3.56h14.71c1.02,0,1.94.42,2.6,1.08s1.08,1.58,1.08,2.6v16.96c.25.12.5.27.75.44.44.29.85.62,1.23,1l.06.06c.75.75,1.37,1.67,1.79,2.69.4.98.62,2.04.62,3.17s-.21,2.12-.6,3.1l-.02.06c-.42,1.02-1.04,1.92-1.79,2.69-.75.75-1.67,1.37-2.69,1.79-.98.4-2.04.62-3.17.62s-2.17-.23-3.17-.62c-1.02-.42-1.94-1.04-2.69-1.79-.73-.79-1.35-1.71-1.77-2.73h0ZM236.52,140.11h-21.98c.37-.81.71-1.62,1-2.46.58-1.62,1-3.27,1.25-4.92h19.73c.15-.27.29-.54.46-.81.31-.5.69-.96,1.08-1.35.77-.77,1.67-1.37,2.69-1.79.98-.4,2.04-.62,3.17-.62s2.12.21,3.1.6l.06.02c1.02.42,1.92,1.04,2.69,1.79.75.75,1.37,1.67,1.79,2.69.4.98.62,2.04.62,3.17s-.23,2.17-.62,3.17c-.42,1.02-1.04,1.94-1.79,2.69s-1.67,1.37-2.69,1.79c-.98.4-2.04.62-3.17.62s-2.12-.21-3.1-.6l-.06-.02c-1.02-.42-1.92-1.04-2.69-1.79-.4-.4-.75-.83-1.06-1.31l-.04-.06c-.15-.25-.29-.52-.44-.79h0ZM243.52,119.95h-27.64c-.71-2.33-1.71-4.6-2.96-6.77l-.04-.06c-.1-.19-.21-.35-.31-.54h27.29v-24.06c-.21-.12-.42-.25-.62-.4-.42-.29-.79-.6-1.15-.96-.75-.75-1.37-1.67-1.79-2.69-.4-.98-.62-2.04-.62-3.17s.23-2.19.62-3.17c.42-1.02,1.04-1.92,1.79-2.69.75-.75,1.67-1.37,2.69-1.79.98-.4,2.04-.62,3.17-.62s2.17.23,3.17.62c1.02.42,1.94,1.04,2.69,1.79s1.37,1.67,1.79,2.69c.4.98.62,2.04.62,3.17s-.21,2.12-.6,3.1l-.02.06c-.42,1.02-1.04,1.92-1.79,2.69-.46.46-1,.87-1.56,1.23-.31.19-.67.37-1,.52v27.33c0,1.02-.42,1.94-1.08,2.6-.69.69-1.6,1.1-2.62,1.1h0ZM214.63,102.16h-9.42c.25-1.37.4-2.75.46-4.12.04-1.1.04-2.19-.02-3.25h5.29v-10.87c-.29-.15-.56-.29-.83-.48-.5-.31-.96-.69-1.4-1.12h0c-.75-.75-1.37-1.67-1.79-2.69-.4-.98-.62-2.04-.62-3.15s.23-2.17.62-3.17c.42-.98,1-1.87,1.73-2.62l.06-.06c.75-.75,1.67-1.37,2.69-1.79.98-.4,2.04-.62,3.17-.62s2.19.23,3.17.62c.98.42,1.87,1,2.62,1.75l.06.04c.75.75,1.35,1.62,1.77,2.62l.02.06c.4.98.62,2.04.62,3.17s-.23,2.19-.62,3.17c-.42.98-1,1.87-1.73,2.62l-.06.06c-.4.4-.83.75-1.33,1.08-.25.17-.5.31-.77.44v14.62c0,1.02-.42,1.94-1.08,2.6-.67.67-1.6,1.08-2.6,1.08h0ZM68.64,39.1c.98.4,2.04.62,3.17.62s2.19-.23,3.17-.62c.98-.42,1.87-1,2.6-1.75l.06-.04c.42-.42.81-.9,1.12-1.42.17-.27.33-.56.48-.87h13.14v11.35c2.31-1.23,4.81-2.12,7.37-2.65v-12.39c0-1.02-.42-1.94-1.08-2.6s-1.58-1.08-2.6-1.08h-16.96c-.12-.25-.27-.5-.44-.75-.29-.44-.62-.85-1-1.23l-.06-.06c-.75-.75-1.67-1.37-2.69-1.79-.98-.4-2.04-.62-3.17-.62s-2.15.21-3.1.6l-.06.02c-1.02.42-1.92,1.04-2.69,1.79-.75.75-1.37,1.67-1.79,2.69-.4.98-.62,2.04-.62,3.17s.23,2.17.62,3.17c.42,1.02,1.04,1.94,1.79,2.69.81.75,1.71,1.37,2.73,1.79h0ZM110.85,15.69v28.46c2.46.71,4.85,1.83,7.1,3.46l.25.19c0-.06.02-.12.02-.19V15.69c.27-.15.54-.29.81-.46.5-.31.96-.69,1.35-1.08.75-.77,1.37-1.67,1.79-2.69.4-.98.62-2.04.62-3.17s-.21-2.12-.6-3.1l-.02-.06c-.42-1.02-1.04-1.92-1.79-2.69-.75-.75-1.67-1.37-2.69-1.79-.98-.4-2.04-.62-3.17-.62s-2.17.23-3.17.62c-1.02.42-1.94,1.04-2.69,1.79s-1.37,1.67-1.79,2.69c-.4.98-.62,2.04-.62,3.17s.21,2.12.6,3.1l.02.06c.42,1.02,1.04,1.92,1.79,2.69.4.4.83.75,1.31,1.06l.04.02c.27.17.52.31.81.46h0ZM130.99,8.69v41.62c1-1.02,2.06-1.92,3.15-2.71,1.35-.98,2.77-1.79,4.23-2.42V12.35h24.06c.12.21.25.42.4.62.29.42.6.79.96,1.15.75.75,1.67,1.37,2.69,1.79.98.4,2.04.62,3.17.62s2.19-.23,3.17-.62c1.02-.42,1.94-1.04,2.69-1.79s1.37-1.67,1.79-2.69c.4-.98.62-2.04.62-3.17s-.23-2.17-.62-3.17c-.42-1.02-1.04-1.94-1.79-2.69-.79-.75-1.71-1.37-2.73-1.79-.98-.4-2.04-.62-3.15-.62s-2.12.21-3.1.6l-.06.02c-1.02.42-1.92,1.04-2.69,1.79-.46.46-.87,1-1.23,1.56-.19.31-.37.67-.52,1h-27.33c-1.02,0-1.94.42-2.6,1.08-.67.69-1.08,1.6-1.08,2.62h0ZM148.78,37.58v5.71c.75.04,1.52.1,2.27.23,1.75.25,3.46.69,5.1,1.29v-3.52h10.87c.15.29.29.56.48.83.31.5.69.96,1.12,1.4h0c.75.75,1.67,1.37,2.69,1.79.98.4,2.04.62,3.15.62s2.17-.23,3.17-.62c.98-.42,1.87-1,2.62-1.73l.06-.06c.75-.75,1.37-1.67,1.79-2.69.4-.98.62-2.04.62-3.17s-.23-2.19-.62-3.17c-.42-.98-1-1.87-1.75-2.62l-.04-.06c-.75-.75-1.62-1.35-2.62-1.77l-.06-.02c-.98-.4-2.04-.62-3.17-.62s-2.19.23-3.17.62c-.98.42-1.87,1-2.62,1.73l-.06.06c-.4.4-.75.83-1.08,1.33-.17.25-.31.5-.44.77h-14.62c-1.02,0-1.94.42-2.6,1.08-.67.65-1.08,1.56-1.08,2.58h0ZM42.89,73.33c.4.98.62,2.04.62,3.17s-.23,2.19-.62,3.17c-.42.98-1,1.87-1.75,2.6l-.04.06c-.42.42-.9.81-1.42,1.12-.27.17-.56.33-.87.48v13.14h13.64v.65c0,.5.02,1.02.04,1.56.04.46-.17.92-.56,1.21-1.79,1.27-3.4,2.6-4.85,3.96h-11.92c-1.02,0-1.94-.42-2.6-1.08s-1.08-1.58-1.08-2.6v-16.96c-.25-.12-.5-.27-.75-.44-.44-.29-.85-.62-1.23-1l-.06-.06c-.75-.75-1.37-1.67-1.79-2.69-.4-.98-.62-2.04-.62-3.17s.21-2.12.6-3.1l.02-.06c.42-1.02,1.04-1.92,1.79-2.69.75-.75,1.67-1.37,2.69-1.79.98-.4,2.04-.62,3.17-.62s2.17.23,3.17.62c1.02.42,1.94,1.04,2.69,1.79.71.79,1.33,1.71,1.75,2.73h0ZM19.48,115.51h19.58c-.33.75-.62,1.52-.9,2.27-.58,1.69-1,3.37-1.25,5.08h-17.44c-.15.27-.29.54-.46.81-.31.5-.69.96-1.08,1.35-.77.77-1.67,1.37-2.69,1.79-.98.4-2.04.62-3.17.62s-2.12-.21-3.1-.6l-.06-.02c-1.02-.42-1.92-1.04-2.69-1.79-.75-.75-1.37-1.67-1.79-2.69-.4-.98-.62-2.04-.62-3.17s.23-2.17.62-3.17c.42-1.02,1.04-1.94,1.79-2.69s1.67-1.37,2.69-1.79c.98-.4,2.04-.62,3.17-.62s2.12.21,3.1.6l.06.02c1.02.42,1.92,1.04,2.69,1.79.4.4.75.83,1.06,1.31l.04.06c.15.27.29.54.44.81h0ZM12.48,135.68h25.48c.79,2.52,1.94,4.96,3.4,7.27v.02l.04.08h-25.25v24.06c.21.12.42.25.62.4.42.29.79.6,1.15.96.75.75,1.37,1.67,1.79,2.69.4.98.62,2.04.62,3.17s-.23,2.19-.62,3.17c-.42,1.02-1.04,1.92-1.79,2.69-.75.75-1.67,1.37-2.69,1.79-.98.4-2.04.62-3.17.62s-2.17-.23-3.17-.62c-1.02-.42-1.94-1.04-2.69-1.79-.75-.81-1.37-1.73-1.79-2.73-.4-.98-.62-2.04-.62-3.17s.21-2.12.6-3.1l.02-.06c.42-1.02,1.04-1.92,1.79-2.69.46-.46,1-.87,1.56-1.23.31-.19.67-.37,1-.52v-27.33c0-1.02.42-1.94,1.08-2.6.69-.65,1.6-1.06,2.62-1.06h0ZM41.37,153.47h6.87c-.23,1.37-.35,2.73-.4,4.06-.04,1.12-.02,2.23.06,3.31h-2.85v10.87c.29.15.56.29.83.48.5.31.96.69,1.4,1.12h0c.75.75,1.37,1.67,1.79,2.69.4.98.62,2.04.62,3.17s-.23,2.17-.62,3.17c-.42.98-1,1.87-1.73,2.62l-.06.06c-.75.75-1.67,1.37-2.69,1.79-.98.4-2.04.62-3.17.62s-2.19-.23-3.17-.62c-.98-.42-1.87-1-2.62-1.75l-.06-.04c-.75-.75-1.35-1.62-1.77-2.62l-.02-.06c-.4-.98-.62-2.04-.62-3.17s.23-2.19.62-3.17c.42-.98,1-1.87,1.73-2.62l.06-.06c.4-.4.83-.75,1.33-1.08.25-.17.5-.31.77-.44v-14.62c0-1.02.42-1.94,1.08-2.6.67-.71,1.58-1.1,2.6-1.1h0ZM141.34,240.29v-29.14c-2.6-.81-5.06-2.12-7.31-3.98l-.04-.04v33.18c-.27.15-.54.29-.81.46-.5.31-.96.69-1.35,1.08-.75.77-1.37,1.67-1.79,2.69-.4.98-.62,2.04-.62,3.17s.21,2.12.6,3.1l.02.06c.42,1.02,1.04,1.92,1.79,2.69.75.75,1.67,1.37,2.69,1.79.98.4,2.04.62,3.17.62s2.17-.23,3.17-.62c1.02-.42,1.94-1.04,2.69-1.79s1.37-1.67,1.79-2.69c.4-.98.62-2.04.62-3.17s-.21-2.12-.6-3.1l-.02-.06c-.42-1.02-1.04-1.92-1.79-2.69-.4-.4-.83-.75-1.31-1.06l-.06-.04c-.27-.17-.54-.31-.81-.46h0ZM121.18,247.29v-42c-.87.9-1.79,1.69-2.75,2.42-1.48,1.12-3.02,2.02-4.62,2.73v33.21h-24.06c-.12-.21-.25-.42-.4-.62-.29-.42-.6-.79-.96-1.15-.75-.75-1.67-1.37-2.69-1.79-.98-.4-2.04-.62-3.17-.62s-2.19.23-3.17.62c-1.02.42-1.92,1.04-2.69,1.79-.75.75-1.37,1.67-1.79,2.69-.4.98-.62,2.04-.62,3.17s.23,2.17.62,3.17c.42,1.02,1.04,1.94,1.79,2.69.75.75,1.67,1.37,2.69,1.79.98.4,2.04.62,3.17.62s2.12-.21,3.1-.6l.06-.02c1.02-.42,1.92-1.04,2.69-1.79.46-.46.87-1,1.23-1.56.19-.31.37-.67.52-1h27.33c1.02,0,1.94-.42,2.6-1.08.69-.71,1.1-1.62,1.1-2.65h0ZM103.39,218.4v-6.06c-1.62-.08-3.25-.33-4.83-.73-.85-.21-1.71-.48-2.54-.77v3.9h-10.87c-.15-.29-.29-.56-.48-.83-.31-.5-.69-.96-1.12-1.4h0c-.75-.75-1.67-1.37-2.69-1.79-.98-.4-2.04-.62-3.15-.62s-2.17.23-3.17.62c-.98.42-1.87,1-2.62,1.73l-.06.04c-.75.75-1.37,1.67-1.79,2.69-.4.98-.62,2.04-.62,3.17s.23,2.19.62,3.17c.42.98,1,1.87,1.75,2.62l.04.06c.75.75,1.62,1.35,2.62,1.77l.06.02c.98.4,2.04.62,3.17.62s2.17-.23,3.17-.62c.98-.42,1.87-1,2.62-1.73l.06-.06c.4-.4.75-.83,1.08-1.33.17-.25.31-.5.44-.77h14.62c1.02,0,1.94-.42,2.6-1.08.67-.67,1.08-1.58,1.08-2.6h0Z"/>
</svg>