<?xml version="1.0" encoding="UTF-8"?>
<svg id="a" data-name="Layer 1" xmlns="http://www.w3.org/2000/svg" viewBox="0 0 256 256">
  <defs>
    <style>
      .b {
        fill: #000;
        stroke-width: 0px;
      }
    </style>
  </defs>
  <path  d="M151.81,253.02h-47.63c-23.16,0-39.89,0-53.45-1.82-15.52-2.09-26.06-6.63-34.17-14.74-8.11-8.11-12.65-18.65-14.74-34.17C0,188.73,0,171.99,0,148.84v-23.81C0,101.87,0,85.13,1.82,71.57c2.09-15.52,6.63-26.06,14.74-34.17,8.11-8.11,18.65-12.65,34.17-14.74,13.56-1.82,30.29-1.82,53.45-1.82h47.63c23.16,0,39.89,0,53.45,1.82,15.52,2.09,26.06,6.63,34.17,14.74,8.11,8.11,12.66,18.65,14.74,34.17,1.82,13.56,1.82,30.29,1.82,53.45v23.81c0,23.16,0,39.89-1.82,53.45-2.09,15.52-6.63,26.06-14.74,34.17-8.91,8.91-20.61,13.49-39.12,15.31-4.91.48-9.28-3.1-9.76-8.01-.48-4.91,3.1-9.28,8.01-9.76,14.23-1.4,22.41-4.35,28.24-10.17,11.33-11.33,11.33-32.61,11.33-74.99v-23.81c0-42.38,0-63.66-11.33-74.99-11.33-11.33-32.61-11.33-74.99-11.33h-47.63c-42.38,0-63.66,0-74.99,11.33-11.33,11.33-11.33,32.61-11.33,74.99v23.81c0,42.38,0,63.66,11.33,74.99,11.33,11.33,32.61,11.33,74.99,11.33h47.63c4.93,0,8.93,4,8.93,8.93s-4,8.93-8.93,8.93Z"/>
  <path  d="M68.47,38.7c-4.93,0-8.93-4-8.93-8.93V11.91c0-4.93,4-8.93,8.93-8.93s8.93,4,8.93,8.93v17.86c0,4.93-4,8.93-8.93,8.93Z"/>
  <path  d="M187.53,38.7c-4.93,0-8.93-4-8.93-8.93V11.91c0-4.93,4-8.93,8.93-8.93s8.93,4,8.93,8.93v17.86c0,4.93-4,8.93-8.93,8.93Z"/>
  <path  d="M241.12,98.23H113.12c-4.93,0-8.93-4-8.93-8.93s4-8.93,8.93-8.93h128c4.93,0,8.93,4,8.93,8.93s-4,8.93-8.93,8.93ZM55.07,98.23H8.93c-4.93,0-8.93-4-8.93-8.93s4-8.93,8.93-8.93h46.14c4.93,0,8.93,4,8.93,8.93s-4,8.93-8.93,8.93Z"/>
  <path  d="M199.44,184.56c0,6.58-5.33,11.91-11.91,11.91s-11.91-5.33-11.91-11.91,5.33-11.91,11.91-11.91,11.91,5.33,11.91,11.91Z"/>
  <path  d="M199.44,136.93c0,6.58-5.33,11.91-11.91,11.91s-11.91-5.33-11.91-11.91,5.33-11.91,11.91-11.91,11.91,5.33,11.91,11.91Z"/>
  <path  d="M139.91,184.56c0,6.58-5.33,11.91-11.91,11.91s-11.91-5.33-11.91-11.91,5.33-11.91,11.91-11.91,11.91,5.33,11.91,11.91Z"/>
  <path  d="M139.91,136.93c0,6.58-5.33,11.91-11.91,11.91s-11.91-5.33-11.91-11.91,5.33-11.91,11.91-11.91,11.91,5.33,11.91,11.91Z"/>
  <path  d="M80.37,184.56c0,6.58-5.33,11.91-11.91,11.91s-11.91-5.33-11.91-11.91,5.33-11.91,11.91-11.91,11.91,5.33,11.91,11.91Z"/>
  <path  d="M80.37,136.93c0,6.58-5.33,11.91-11.91,11.91s-11.91-5.33-11.91-11.91,5.33-11.91,11.91-11.91,11.91,5.33,11.91,11.91Z"/>
</svg>