<?xml version="1.0" encoding="UTF-8"?>
<svg id="a" data-name="Layer 1" xmlns="http://www.w3.org/2000/svg" viewBox="0 0 256 256">
  <defs>
    <style>
      .b {
        fill: #000;
        stroke-width: 0px;
      }
    </style>
  </defs>
  <rect  x="37.33" y="53.33" width="48" height="10.67" rx="5.33" ry="5.33"/>
  <rect  x="96" y="53.33" width="26.67" height="10.67" rx="5.33" ry="5.33"/>
  <rect  x="37.33" y="133.33" width="48" height="10.67" rx="5.33" ry="5.33"/>
  <rect  x="96" y="133.33" width="26.67" height="10.67" rx="5.33" ry="5.33"/>
  <rect  x="37.33" y="106.67" width="32" height="10.67" rx="5.33" ry="5.33"/>
  <rect  x="154.67" y="106.67" width="16" height="10.67" rx="5.33" ry="5.33"/>
  <rect  x="80" y="106.67" width="64" height="10.67" rx="5.33" ry="5.33"/>
  <rect  x="106.67" y="80" width="21.33" height="10.67" rx="5.33" ry="5.33"/>
  <rect  x="37.33" y="80" width="58.67" height="10.67" rx="5.33" ry="5.33"/>
  <rect  x="138.67" y="80" width="80" height="10.67" rx="5.33" ry="5.33"/>
  <rect  x="37.33" y="160" width="80" height="10.67" rx="5.33" ry="5.33"/>
  <path  d="M200,130.67h0c-2.08,2.08-2.08,5.46,0,7.54l7.35,7.35c2.08,2.08,2.08,5.46,0,7.54l-7.35,7.35c-2.08,2.08-2.08,5.46,0,7.54h0c2.08,2.08,5.46,2.08,7.54,0l14.9-14.9c2.08-2.08,2.08-5.46,0-7.54l-14.9-14.9c-2.08-2.08-5.46-2.08-7.54,0Z"/>
  <path  d="M157.33,130.67h0c-2.08-2.08-5.46-2.08-7.54,0l-14.9,14.9c-2.08,2.08-2.08,5.46,0,7.54l14.9,14.9c2.08,2.08,5.46,2.08,7.54,0h0c2.08-2.08,2.08-5.46,0-7.54l-7.35-7.35c-2.08-2.08-2.08-5.46,0-7.54l7.35-7.35c2.08-2.08,2.08-5.46,0-7.54Z"/>
  <rect  x="149.94" y="144.05" width="57.44" height="10.67" rx="5.33" ry="5.33" transform="translate(-26.36 259.85) rotate(-68.22)"/>
  <path  d="M245.33,181.33V32c0-2.95-2.39-5.33-5.33-5.33H16c-2.95,0-5.33,2.39-5.33,5.33v149.33c0,2.95-2.39,5.33-5.33,5.33h0c-2.95,0-5.33,2.39-5.33,5.33v16c0,1.05.31,2.08.9,2.96l10.67,16c.99,1.48,2.65,2.37,4.44,2.37h224c1.78,0,3.45-.89,4.44-2.37l10.67-16c.58-.88.9-1.91.9-2.96v-16c0-2.95-2.39-5.33-5.33-5.33h0c-2.95,0-5.33-2.39-5.33-5.33ZM26.67,37.33h202.67c2.95,0,5.33,2.39,5.33,5.33v138.67c0,2.95-2.39,5.33-5.33,5.33H26.67c-2.95,0-5.33-2.39-5.33-5.33V42.67c0-2.95,2.39-5.33,5.33-5.33ZM244.44,207.73l-5.71,8.56c-.99,1.48-2.65,2.37-4.44,2.37H21.71c-1.78,0-3.45-.89-4.44-2.37l-5.71-8.56c-.58-.88-.9-1.91-.9-2.96v-2.1c0-2.95,2.39-5.33,5.33-5.33h224c2.95,0,5.33,2.39,5.33,5.33v2.1c0,1.05-.31,2.08-.9,2.96Z"/>
  <rect  x="144" y="202.67" width="10.67" height="10.67" rx="5.33" ry="5.33"/>
  <rect  x="122.67" y="202.67" width="10.67" height="10.67" rx="5.33" ry="5.33"/>
  <rect  x="101.33" y="202.67" width="10.67" height="10.67" rx="5.33" ry="5.33"/>
</svg>